<?xml version="1.0" encoding="utf-8"?>
<!-- Generator: Adobe Illustrator 21.1.0, SVG Export Plug-In . SVG Version: 6.00 Build 0)  -->
<svg version="1.2" baseProfile="tiny" id="Layer_1" xmlns="http://www.w3.org/2000/svg" xmlns:xlink="http://www.w3.org/1999/xlink"
	 x="0px" y="0px" viewBox="0 0 500 459" overflow="scroll" xml:space="preserve">
<g>
	<path fill="#6E6E6E" d="M24,174c36.9,0,73.8,0,110.7,0.1c11.8,0,23.7-0.7,35.3,0.9c20,2.7,35.8,22.2,35.9,42.5c0,4,0,8.1,0,12.5
		c42.1,0,83.7,0,125.7,0c0,9.3,0,18.3,0,27.7c-41.7,0-83.4,0-125.7,0c0,2.9,0,5.4,0,7.8c0,46.8,0.1,93.6-0.1,140.4
		c0,6.6-1.1,13.2-1.6,20c79.4,0,159.4,0,239.7,0c0-56,0-111.7,0-167.8c-4.3,0-8.7,0-13.3,0c0-9.4,0-18.5,0-28.1
		c13.9,0,27.7,0,41.5,0c0,74.7,0,149.3,0,224c-126,0-252,0-378,0c0-13.9,0-27.8,0-41.5c9.8,0,18.8,0,28.1,0c0,4.7,0,9,0,13.5
		c15.3,0,30.3,0.1,45.3-0.1c3.9-0.1,7.2-2,9.2-5.8c5.8-11.2-0.6-22.1-13.1-22.3c-8.9-0.1-17.8,0-26.7,0c-37.6,0-75.2,0.1-112.7,0.1
		C24,323.3,24,248.7,24,174z M52,370.1c3.2,0,6,0,8.7,0c39,0.6,78.1-1.3,117.3,1.2c0,0.3,0.1-0.1,0.1-0.5c0-51.9,0-103.8,0-155.7
		c0-9-4.7-13.2-14.2-13.2c-35.7,0-71.4,0-107.2,0c-1.5,0-3.1,0-4.7,0C52,258.2,52,313.9,52,370.1z"/>
	<path fill="#6E6E6E" d="M416,6c0,37.5-0.1,75-0.1,112.4c0,80.4,0,160.7,0.1,241.1c0,3-1,4.7-3.5,6.2c-5.1,3.1-10.1,6.4-14.9,10
		c-1.4,1-2.5,3.1-2.6,4.8c-0.3,5.5-0.1,11.1-0.1,17c-9.1,0-18.1,0-27.8,0c0-5.2-0.2-10.7,0.1-16.2c0.2-3-1-4.8-3.5-6.3
		c-4.8-3-9.4-6.4-14.3-9.3c-2.5-1.5-3.4-3.3-3.4-6.3c0.1-45.1,0.1-90.1,0.1-135.2c0-48,0-96,0-143.9c0-1.3,0-2.6,0-4.1
		c-4.8,0-9.2,0-14.2,0c0,32.4,0,64.9,0,97.5c-9.4,0-18.2,0-27.5,0c0-41.6,0-83.2,0-125.3c13.5,0,27.3,0,41.5,0c0-14.5,0-28.4,0-42.3
		C369.3,6,392.7,6,416,6z M374.1,76.1c-0.1,1.6-0.2,2.8-0.2,3.9c0,88.3,0,176.7,0,265c0,3.2,4.3,7.9,7.2,7.8c2.9-0.1,7-4.7,7-8
		c0-88.1,0-176.1,0-264.2c0-1.5,0-3.1,0-4.7C383.1,76.1,378.8,76.1,374.1,76.1z M374.3,34.1c0,4.6,0,9.2,0,13.7c4.7,0,9.1,0,13.6,0
		c0-4.7,0-9.1,0-13.7C383.3,34.1,379,34.1,374.3,34.1z"/>
	<path fill="#6E6E6E" d="M262.3,306.7c0-9.2,0-18.1,0-27.3c23.2,0,46.1,0,69.3,0c0,9.2,0,18.1,0,27.3
		C308.5,306.7,285.5,306.7,262.3,306.7z"/>
	<path fill="#6E6E6E" d="M220.3,397.6c0-9.3,0-18.2,0-27.3c23.2,0,46.1,0,69.3,0c0,9.1,0,18.1,0,27.3
		C266.5,397.6,243.6,397.6,220.3,397.6z"/>
	<path fill="#6E6E6E" d="M220.4,279.3c9.2,0,18,0,27.2,0c0,9.1,0,18.1,0,27.3c-9,0-17.9,0-27.2,0
		C220.4,297.6,220.4,288.7,220.4,279.3z"/>
</g>
</svg>
