<?xml version="1.0" encoding="utf-8"?>
<!-- Generator: Adobe Illustrator 21.1.0, SVG Export Plug-In . SVG Version: 6.00 Build 0)  -->
<svg version="1.2" baseProfile="tiny" id="Layer_1" xmlns="http://www.w3.org/2000/svg" xmlns:xlink="http://www.w3.org/1999/xlink"
	 x="0px" y="0px" viewBox="0 0 500 459" overflow="scroll" xml:space="preserve">
<g>
	<path fill="#6E6E6E" d="M191.5,387.2c-46.3,0-92.6,0-138.9,0c-16.1,0-26.9-10.9-26.9-26.9c0-52.9,0-106,0-158.9
		c0-16.9,10.6-27.4,27.7-27.4c92.4,0,184.7,0,277,0c15.7,0,26.7,11,26.7,26.7c0,52.9,0,106,0,158.9c0,17.2-10.6,27.7-27.9,27.7
		C283.3,387.2,237.4,387.2,191.5,387.2z M60,319.4c0,8.6,0,16.8,0,25c56.7,0,113.1,0,169.4,0c0-8.5,0-16.7,0-25
		C172.8,319.4,116.6,319.4,60,319.4z M314.6,238.5L314.6,238.5c0-6.8,0.1-13.6,0-20.4c-0.1-5.9-3.3-9.3-9.1-9.3
		c-13.7-0.1-27.4-0.1-41.1,0c-5.9,0-9.2,3.4-9.2,9.3c-0.1,13.6-0.1,27.2,0,40.7c0,5.9,3.3,9.3,9.1,9.3c13.7,0.1,27.4,0.1,41.1,0
		c5.9,0,9.1-3.4,9.2-9.3C314.6,252.1,314.6,245.3,314.6,238.5z"/>
	<path fill="#6E6E6E" d="M109.8,71c105.4,33.9,210.2,67.6,315.4,101.5c-1.3,4.1-2.4,7.9-3.7,11.7c-9.9,30.8-19.9,61.6-29.7,92.5
		c-2.8,8.8-8.2,15.3-17.8,18.4c0-10.1,0-19.7,0-29.3c0-21.7,0.1-43.3,0-65c-0.1-25-18.4-43.1-43.3-43.1c-81.2,0-162.2,0-243.4,0
		c-1.5,0-3.1,0-5.3,0C91.4,128.7,100.5,100,109.8,71z"/>
	<path fill="#6E6E6E" d="M438.1,132.1C333,98.2,228.1,64.5,123.3,30.9c2.1-19.3,18.1-29.9,35.9-24.2C246.6,34.7,334,62.9,421.5,91
		c17.6,5.7,24.1,18.5,18.4,36C439.3,128.6,438.8,130.2,438.1,132.1z"/>
</g>
<circle fill="#606060" cx="386.5" cy="357.8" r="96.2"/>
<g>
	<path fill="#FFFFFF" d="M389.2,388.4c-4.5,4.5-8.5,8.6-12.6,12.6c-6.1,6.1-12.2,12.2-18.4,18.3c-0.7,0.7-1.5,1.3-2.4,1.6
		c-2,0.6-3.9-1.1-3.9-3.5c0-7.5,0-14.9,0-22.4c0-29.3,0-58.7,0-88c0-3.8,0.9-4.7,4.7-4.7c21.6,0,43.2,0,64.9,0c3.4,0,4.4,1,4.4,4.3
		c0,36.9,0,73.7,0,110.6c0,1.7-0.6,3-2.2,3.6c-1.6,0.7-2.8-0.1-3.9-1.2c-9.8-9.8-19.6-19.6-29.3-29.4
		C390.1,389.8,389.7,389.1,389.2,388.4z"/>
</g>
</svg>
