<?xml version="1.0" encoding="utf-8"?>
<!-- Generator: Adobe Illustrator 21.1.0, SVG Export Plug-In . SVG Version: 6.00 Build 0)  -->
<svg version="1.2" baseProfile="tiny" id="Layer_1" xmlns="http://www.w3.org/2000/svg" xmlns:xlink="http://www.w3.org/1999/xlink"
	 x="0px" y="0px" viewBox="0 0 500 459" overflow="scroll" xml:space="preserve">
<g>
	<path fill="#6E6E6E" d="M200.2,454.5c-54.5,0-109,0-163.5,0C17.8,454.5,5,441.7,5,422.8c0-62.3,0-124.7,0-187
		c0-19.9,12.5-32.3,32.6-32.3c108.7,0,217.3,0,326,0c18.5,0,31.4,12.9,31.4,31.4c0,62.3,0,124.7,0,187c0,20.2-12.5,32.6-32.8,32.6
		C308.2,454.5,254.2,454.5,200.2,454.5z M45.4,374.7c0,10.1,0,19.8,0,29.4c66.7,0,133.1,0,199.3,0c0-10,0-19.6,0-29.4
		C178.2,374.7,112,374.7,45.4,374.7z M345,279.5L345,279.5c0-8,0.1-16,0-24c-0.1-7-3.9-11-10.7-11c-16.1-0.1-32.3-0.1-48.4,0
		c-6.9,0-10.8,4-10.8,11c-0.1,16-0.1,32,0,47.9c0,6.9,3.9,11,10.7,11c16.1,0.1,32.3,0.1,48.4,0c6.9,0,10.7-4,10.8-11
		C345,295.5,345,287.5,345,279.5z"/>
	<path fill="#6E6E6E" d="M53,82.5c124,39.9,247.3,79.6,371.1,119.4c-1.5,4.8-2.8,9.3-4.3,13.8c-11.7,36.3-23.4,72.5-35,108.8
		c-3.3,10.4-9.6,18-20.9,21.6c0-11.9,0-23.2,0-34.5c0-25.5,0.1-51,0-76.5c-0.1-29.4-21.6-50.7-50.9-50.7c-95.5,0-190.9,0-286.4,0
		c-1.8,0-3.6,0-6.2,0C31.4,150.3,42.1,116.6,53,82.5z"/>
	<path fill="#6E6E6E" d="M439.4,154.3C315.7,114.5,192.3,74.8,68.9,35.2C71.4,12.5,90.2,0,111.1,6.7C214,39.7,316.9,72.9,419.8,106
		c20.7,6.7,28.4,21.8,21.7,42.4C440.8,150.2,440.2,152.1,439.4,154.3z"/>
</g>
<circle fill="#606060" cx="345.5" cy="307.8" r="149.2"/>
<g>
	<path fill="#FFFFFF" d="M349.7,355.3c-7,7-13.3,13.3-19.5,19.6c-9.5,9.5-18.9,19-28.5,28.4c-1,1-2.3,2-3.7,2.5
		c-3.1,1-6.1-1.7-6.1-5.5c0-11.6,0-23.1,0-34.7c0-45.5,0-91,0-136.5c0-5.9,1.4-7.2,7.3-7.2c33.5,0,67.1,0,100.6,0
		c5.2,0,6.8,1.6,6.8,6.7c0,57.2,0,114.3,0,171.5c0,2.6-0.9,4.6-3.3,5.6c-2.5,1-4.3-0.2-6-1.9c-15.2-15.2-30.3-30.3-45.5-45.5
		C351.1,357.4,350.5,356.4,349.7,355.3z"/>
</g>
</svg>
